<svg xmlns="http://www.w3.org/2000/svg" width="24" height="24" viewBox="0 0 24 24" role="img">
  <title>Orders Scan Icon</title>
  <g id="order-scan-icon" transform="translate(-1038 -98)">
    <path id="print_FILL0_wght400_GRAD0_opsz48_1_" data-name="print_FILL0_wght400_GRAD0_opsz48 (1)" d="M91.379-836.267v-2.567H84.371v2.567H83.189v-3.15a.561.561,0,0,1,.17-.416A.575.575,0,0,1,83.78-840h8.19a.575.575,0,0,1,.421.168.561.561,0,0,1,.17.416v3.15Zm-10.2,1.167h0Zm11.793,1.847a.57.57,0,0,0,.413-.175.556.556,0,0,0,.177-.408.556.556,0,0,0-.177-.408.57.57,0,0,0-.413-.175.57.57,0,0,0-.413.175.556.556,0,0,0-.177.408.556.556,0,0,0,.177.408A.57.57,0,0,0,92.974-833.253Zm-8.6,6.086h7.009V-830.9H84.371Zm0,1.167a1.145,1.145,0,0,1-.834-.343,1.116,1.116,0,0,1-.347-.824v-2.256h-2.6a.575.575,0,0,1-.421-.168.561.561,0,0,1-.17-.416v-4.2a1.981,1.981,0,0,1,.6-1.469,2.033,2.033,0,0,1,1.486-.592H93.663a2.033,2.033,0,0,1,1.487.592,1.982,1.982,0,0,1,.6,1.469v4.2a.561.561,0,0,1-.17.416.575.575,0,0,1-.421.168h-2.6v2.256a1.116,1.116,0,0,1-.347.824,1.145,1.145,0,0,1-.834.343Zm-1.181-4.589v-1.478h9.371v1.478Z" transform="translate(962 943)"/>
    <rect id="Rectangle_2926" data-name="Rectangle 2926" width="24" height="24" transform="translate(1038 98)" fill="#FFFFFF"/>
  </g>
</svg>
