<svg xmlns="http://www.w3.org/2000/svg" width="42" height="42" viewBox="0 0 42 42" role="img">
  <title>Passport Nav Icon</title>
  <g id="system-nav-icon" transform="translate(-19714 -20369)" fill="#FFFFFF">
    <rect id="Rectangle_1952" data-name="Rectangle 1952" width="42" height="42" transform="translate(19714 20369)" fill="none"/>
    <path id="settings_suggest_FILL1_wght400_GRAD0_opsz48" d="M30.342,14.184a.691.691,0,0,1-.311-.078.492.492,0,0,1-.233-.272L28.63,11.3,26.1,10.137a.492.492,0,0,1-.272-.233.662.662,0,0,1,0-.623.492.492,0,0,1,.272-.233L28.63,7.88,29.8,5.35a.492.492,0,0,1,.233-.272.662.662,0,0,1,.623,0,.492.492,0,0,1,.233.272L32.054,7.88l2.529,1.167a.492.492,0,0,1,.272.233.662.662,0,0,1,0,.623.492.492,0,0,1-.272.233L32.054,11.3l-1.167,2.529a.492.492,0,0,1-.233.272A.691.691,0,0,1,30.342,14.184ZM33.611,25.43a.691.691,0,0,1-.311-.078.509.509,0,0,1-.233-.233l-.623-1.362-1.362-.623a1.754,1.754,0,0,1-.311-.545.691.691,0,0,1,.078-.311.509.509,0,0,1,.233-.233l1.362-.623.623-1.362a1.754,1.754,0,0,1,.545-.311.691.691,0,0,1,.311.078.509.509,0,0,1,.233.233l.623,1.362,1.362.623a1.754,1.754,0,0,1,.311.545.691.691,0,0,1-.078.311.509.509,0,0,1-.233.233l-1.362.623-.623,1.362A1.754,1.754,0,0,1,33.611,25.43Zm-19.3,9.923a1.076,1.076,0,0,1-.759-.311,1.319,1.319,0,0,1-.409-.739l-.272-2.529a4.311,4.311,0,0,1-2.14-1.012l-2.1.9a1,1,0,0,1-.817.039,1.323,1.323,0,0,1-.623-.506L4.853,27.415a1.231,1.231,0,0,1-.136-.876,1.153,1.153,0,0,1,.486-.72L7.227,24.5a3.6,3.6,0,0,1,0-2.335L5.2,20.838a1.153,1.153,0,0,1-.486-.72,1.231,1.231,0,0,1,.136-.876l2.335-3.775a1.323,1.323,0,0,1,.623-.506A1,1,0,0,1,8.628,15l2.1.9a4.311,4.311,0,0,1,2.14-1.012l.272-2.529a1.319,1.319,0,0,1,.409-.739,1.076,1.076,0,0,1,.759-.311h4.436a1.076,1.076,0,0,1,.759.311,1.319,1.319,0,0,1,.409.739l.272,2.529a4.311,4.311,0,0,1,2.14,1.012l2.1-.9a1,1,0,0,1,.817-.039,1.323,1.323,0,0,1,.623.506L28.2,19.243a1.231,1.231,0,0,1,.136.876,1.153,1.153,0,0,1-.486.72l-2.024,1.323a3.6,3.6,0,0,1,0,2.335l2.024,1.323a1.153,1.153,0,0,1,.486.72,1.231,1.231,0,0,1-.136.876L25.867,31.19a1.323,1.323,0,0,1-.623.506,1,1,0,0,1-.817-.039l-2.1-.9a4.311,4.311,0,0,1-2.14,1.012L19.913,34.3a1.319,1.319,0,0,1-.409.739,1.076,1.076,0,0,1-.759.311ZM16.527,27.8A4.327,4.327,0,0,0,21,23.329a4.327,4.327,0,0,0-4.475-4.475,4.327,4.327,0,0,0-4.475,4.475A4.327,4.327,0,0,0,16.527,27.8ZM16.527,23.329Z" transform="translate(19714.43 20369.916)"/>
  </g>
</svg>
