<svg xmlns="http://www.w3.org/2000/svg" width="30" height="30" viewBox="0 0 30 30">
  <g id="Top-Nav-Message" transform="translate(-980 -1169)">
    <path id="sticky_note_2_FILL0_wght400_GRAD0_opsz48_1_" data-name="sticky_note_2_FILL0_wght400_GRAD0_opsz48 (1)" d="M7.833,26.167H20.056V20.972a.888.888,0,0,1,.917-.917h5.194V7.833H7.833Zm0,1.833A1.826,1.826,0,0,1,6,26.167V7.833A1.826,1.826,0,0,1,7.833,6H26.167A1.826,1.826,0,0,1,28,7.833V20.667L20.667,28Zm4.583-9.167a.917.917,0,1,1,0-1.833h3.361a.917.917,0,1,1,0,1.833Zm0-4.889a.917.917,0,1,1,0-1.833h9.167a.917.917,0,1,1,0,1.833ZM7.833,26.167v0Z" transform="translate(978 1167)" fill="#fff"/>
    <rect id="Rectangle_3334" data-name="Rectangle 3334" width="30" height="30" transform="translate(980 1169)" fill="none"/>
  </g>
</svg>
