<svg xmlns="http://www.w3.org/2000/svg" width="42" height="42" viewBox="0 0 42 42" role="img">
  <title>Closelab Nav Icon</title>
  <g id="closelab-nav-icon" transform="translate(-82 -463)">
    <g id="shutdown-nav-icon">
      <path id="Subtraction_1" data-name="Subtraction 1" d="M12337,17958h-22a2,2,0,0,1-2-2v-22a2,2,0,0,1,2-2h22a2,2,0,0,1,2,2v22A2,2,0,0,1,12337,17958Zm-11.95-20.5a2.2,2.2,0,0,0-.39.039,7.167,7.167,0,0,0-4.1,2.379,7.12,7.12,0,0,0,10,10.02,7.078,7.078,0,0,0,2.379-3.943,1.106,1.106,0,0,0-.216-1.172.837.837,0,0,0-.547-.176,2.108,2.108,0,0,0-.711.148,5.916,5.916,0,0,1-.9.248,5.051,5.051,0,0,1-.951.086,4.233,4.233,0,0,1-4.245-4.246,4.58,4.58,0,0,1,.1-.965,5.371,5.371,0,0,1,.275-.924,1.2,1.2,0,0,0,.018-1.176A.788.788,0,0,0,12325.052,17937.5Zm1.025,12.82a5.877,5.877,0,0,1-4.628-9.527,5.98,5.98,0,0,1,3.19-2.15,8.03,8.03,0,0,0-.352,1.227,5.543,5.543,0,0,0-.1,1.014,5.415,5.415,0,0,0,5.426,5.426,6.121,6.121,0,0,0,1.127-.105,5.176,5.176,0,0,0,1.055-.326,5.588,5.588,0,0,1-1.983,3.113A5.672,5.672,0,0,1,12326.077,17950.32Z" transform="translate(-12223 -17461)" fill="#FFFFFF" />
      <g id="help-nav-icon" transform="translate(-19635 -20025)">
        <rect id="Rectangle_1950" data-name="Rectangle 1950" width="42" height="42" transform="translate(19717 20488)" fill="none"/>
      </g>
    </g>
  </g>
</svg>
