<svg xmlns="http://www.w3.org/2000/svg" width="42" height="42" viewBox="0 0 42 42" role="img">
  <title>Help Nav Icon</title>
  <g id="help-nav-icon" transform="translate(-19717 -20488)" fill="#FFFFFF">
    <rect id="Rectangle_1950" data-name="Rectangle 1950" width="42" height="42" transform="translate(19717 20488)" fill="none"/>
    <path id="help_center_FILL1_wght400_GRAD0_opsz48" d="M8.1,31.168a2.15,2.15,0,0,1-2.1-2.1V8.1A2.15,2.15,0,0,1,8.1,6H29.071a2.15,2.15,0,0,1,2.1,2.1V29.071a2.15,2.15,0,0,1-2.1,2.1Zm10.382-4.4a1.313,1.313,0,1,0-.944-.385A1.283,1.283,0,0,0,18.479,26.764Zm.909-6.257a2.943,2.943,0,0,1,.472-1.066A8.884,8.884,0,0,1,20.926,18.2,8.44,8.44,0,0,0,22.5,16.19a4.285,4.285,0,0,0,.454-1.975,3.653,3.653,0,0,0-1.136-2.849,4.378,4.378,0,0,0-3.059-1.031A6.5,6.5,0,0,0,15.84,11a3.279,3.279,0,0,0-1.73,1.643,1.063,1.063,0,0,0-.07.752.834.834,0,0,0,.489.542.89.89,0,0,0,.786-.017,2.581,2.581,0,0,0,.717-.507,3.756,3.756,0,0,1,1.171-.8,3.529,3.529,0,0,1,1.416-.28,2.552,2.552,0,0,1,1.7.542,1.835,1.835,0,0,1,.647,1.486,2.689,2.689,0,0,1-.385,1.363,6.619,6.619,0,0,1-1.258,1.468,8.818,8.818,0,0,0-1.486,1.8,3.117,3.117,0,0,0-.507,1.556,1.07,1.07,0,0,0,.28.734.861.861,0,0,0,.664.315.95.95,0,0,0,.717-.315,1.63,1.63,0,0,0,.4-.769Z" transform="translate(19719.559 20490.416)"/>
  </g>
</svg>
