<svg xmlns="http://www.w3.org/2000/svg" width="42" height="42" viewBox="0 0 42 42" role="img">
  <title>Kiosk Nav Icon</title>
  <g id="kiosk-nav-icon" transform="translate(-19717 -20317)" fill="#FFFFFF">
    <rect id="Rectangle_1953" data-name="Rectangle 1953" width="42" height="42" transform="translate(19717 20317)" fill="none"/>
    <path id="monitor_FILL0_wght400_GRAD0_opsz48" d="M12.419,31.576a1.577,1.577,0,0,1-1.563-1.563,2.711,2.711,0,0,1,.16-.888,2.022,2.022,0,0,1,.48-.781l1.03-1.03H6.131a2.019,2.019,0,0,1-1.492-.657A2.065,2.065,0,0,1,4,25.182V8.131a2.065,2.065,0,0,1,.639-1.474A2.019,2.019,0,0,1,6.131,6H30.287a2.038,2.038,0,0,1,1.474.657,2.038,2.038,0,0,1,.657,1.474V25.182a2.255,2.255,0,0,1-2.131,2.131H23.893l1.03,1.03a2.317,2.317,0,0,1,.48.746,2.354,2.354,0,0,1,.2.924,1.577,1.577,0,0,1-1.563,1.563ZM6.131,25.182H30.287V8.131H6.131Zm0,0v0Z" transform="translate(19719.309 20319.23)"/>
  </g>
</svg>
