<svg xmlns="http://www.w3.org/2000/svg" width="42" height="42" viewBox="0 0 42 42" role="img">
  <title>Link Nav Icon</title>
  <g id="link-nav-icon" transform="translate(-19845 -21098)" fill="#FFFFFF">
    <g id="Group_3031" data-name="Group 3031" transform="translate(21 -5)">
      <g id="Group_3028" data-name="Group 3028" transform="translate(107 615)">
        <rect id="Rectangle_1950" data-name="Rectangle 1950" width="42" height="42" transform="translate(19717 20488)" fill="none"/>
      </g>
    </g>
    <path id="Path_1368" data-name="Path 1368" d="M26,7H19.6v3.2H26a4.8,4.8,0,0,1,0,9.6H19.6V23H26A8,8,0,1,0,26,7ZM16.4,19.8H10a4.8,4.8,0,1,1,0-9.6h6.4V7H10a8,8,0,1,0,0,16h6.4Zm-4.8-6.4H24.4v3.2H11.6Z" transform="translate(19848.248 21103.125)"/>
  </g>
</svg>
