<svg xmlns="http://www.w3.org/2000/svg" width="24" height="24" viewBox="0 0 24 24" role="img">
  <title>Orders Web Icon</title>
  <g id="order-web-icon" transform="translate(-111 -800)">
    <g id="Group_3818" data-name="Group 3818" transform="translate(-927 564)">
      <path id="Union_2" data-name="Union 2" d="M12317.86,17947.365a8.071,8.071,0,0,1-2.542-1.707,7.912,7.912,0,0,1-1.7-2.549,8.017,8.017,0,0,1-.624-3.152,7.868,7.868,0,0,1,.624-3.129,7.954,7.954,0,0,1,1.7-2.529,7.8,7.8,0,0,1,2.542-1.689,8.385,8.385,0,0,1,6.276,0,7.8,7.8,0,0,1,2.541,1.689,8.033,8.033,0,0,1,1.7,2.529,7.951,7.951,0,0,1,.619,3.129,8.1,8.1,0,0,1-.619,3.152,7.889,7.889,0,0,1-4.242,4.256,8.1,8.1,0,0,1-6.276,0Zm3.138-.969c.135,0,.267-.006.4-.01a6.931,6.931,0,0,0,.772-1.2,9.985,9.985,0,0,0,.768-2.211h-3.86a10.275,10.275,0,0,0,.75,2.162,6.977,6.977,0,0,0,.783,1.246C12320.738,17946.391,12320.868,17946.4,12321,17946.4Zm-2.021-.326a9.508,9.508,0,0,1-.537-1.117,11.888,11.888,0,0,1-.6-1.975h-2.5A6.434,6.434,0,0,0,12318.977,17946.07Zm4.591-1.133a9.55,9.55,0,0,1-.539,1.131,6.437,6.437,0,0,0,3.633-3.09h-2.485A14.2,14.2,0,0,1,12323.567,17944.938Zm.89-5.67c.016.248.018.479.018.689,0,.3-.006.57-.027.834s-.051.586-.09.988h2.789a6.442,6.442,0,0,0,0-3.578h-2.763C12324.418,17938.668,12324.442,17939.02,12324.457,17939.268Zm-5.7-.078q-.022.369-.021.768c0,.281.007.553.021.811s.048.6.1,1.012h4.3c.054-.412.087-.75.1-1.012s.021-.529.021-.811q0-.4-.021-.768c-.015-.248-.048-.578-.1-.988h-4.3C12318.808,17938.611,12318.771,17938.941,12318.76,17939.189Zm-1.142,2.59c-.039-.361-.061-.684-.068-.971s-.011-.57-.011-.852c0-.33.007-.629.021-.889s.039-.551.079-.867h-2.784a6.43,6.43,0,0,0-.006,3.578Zm5.932-6.781a13.664,13.664,0,0,1,.61,2h2.489a6.416,6.416,0,0,0-3.62-3.066A8.987,8.987,0,0,1,12323.55,17935Zm-3.632-.377a12.816,12.816,0,0,0-.841,2.377h3.882a7.936,7.936,0,0,0-.738-2.049,8.714,8.714,0,0,0-.872-1.34c-.115,0-.232-.008-.351-.008-.14,0-.279.006-.417.012A4.83,4.83,0,0,0,12319.918,17934.621Zm-2.058,2.377a11.319,11.319,0,0,1,.558-1.926,9,9,0,0,1,.551-1.141,6.421,6.421,0,0,0-3.621,3.066Z" transform="translate(-11270.998 -17691.998)"/>
      <rect id="Rectangle_2929" data-name="Rectangle 2929" width="24" height="24" transform="translate(1038 236)" fill="#FFFFFF"/>
    </g>
  </g>
</svg>
