<svg xmlns="http://www.w3.org/2000/svg" width="42" height="42" viewBox="0 0 42 42" role="img">
  <title>Orders Nav Icon</title>
  <g id="orders-nav-icon" transform="translate(-19733 -20131)" fill="#FFFFFF">
    <g id="Group_2932" data-name="Group 2932" transform="translate(123 -185)">
      <rect id="Rectangle_1948" data-name="Rectangle 1948" width="42" height="42" transform="translate(19610 20316)" fill="none"/>
    </g>
    <path id="list_alt_FILL1_wght400_GRAD0_opsz48" d="M8.376,34.516A2.28,2.28,0,0,1,6.713,33.8,2.28,2.28,0,0,1,6,32.139V8.376a2.28,2.28,0,0,1,.713-1.663A2.28,2.28,0,0,1,8.376,6H32.139a2.28,2.28,0,0,1,1.663.713,2.28,2.28,0,0,1,.713,1.663V32.139a2.436,2.436,0,0,1-2.376,2.376Zm4.753-6.574a1.218,1.218,0,1,0-.832-.356A1.14,1.14,0,0,0,13.129,27.941Zm0-6.5a1.218,1.218,0,1,0-.832-.356A1.14,1.14,0,0,0,13.129,21.446Zm0-6.5a1.218,1.218,0,1,0-.832-.356A1.14,1.14,0,0,0,13.129,14.951Zm6.416,12.99h7.287a1.188,1.188,0,1,0,0-2.376H19.545a1.188,1.188,0,1,0,0,2.376Zm0-6.5h7.287a1.188,1.188,0,1,0,0-2.376H19.545a1.188,1.188,0,1,0,0,2.376Zm0-6.5h7.287a1.188,1.188,0,1,0,0-2.376H19.545a1.188,1.188,0,1,0,0,2.376Z" transform="translate(19734 20132)"/>
  </g>
</svg>
