<svg xmlns="http://www.w3.org/2000/svg" width="24" height="24" viewBox="0 0 24 24" role="img">
  <title>Order Passport Icon</title>
  <g id="order-passport-icon" transform="translate(-1038 -144)" >
    <path id="person_book_FILL0_wght400_GRAD0_opsz48" d="M167-868.438a9.349,9.349,0,0,1,3.052.488,10.579,10.579,0,0,1,2.636,1.33V-878.8H161.313v12.182a10.588,10.588,0,0,1,2.636-1.33A9.352,9.352,0,0,1,167-868.438ZM161.313-864a1.326,1.326,0,0,1-.919-.357A1.112,1.112,0,0,1,160-865.2v-13.6a1.11,1.11,0,0,1,.393-.839,1.329,1.329,0,0,1,.919-.36h11.375a1.327,1.327,0,0,1,.918.36,1.107,1.107,0,0,1,.393.839v13.6a1.109,1.109,0,0,1-.393.842,1.324,1.324,0,0,1-.918.357Z" transform="translate(883 1028)"/>
    <rect id="Rectangle_2927" data-name="Rectangle 2927" width="24" height="24" transform="translate(1038 144)" fill="none"/>
    <circle id="Ellipse_86" data-name="Ellipse 86" cx="3" cy="3" r="3" transform="translate(1047 152)"/>
  </g>
</svg>
