<svg xmlns="http://www.w3.org/2000/svg" width="42" height="42" viewBox="0 0 42 42" role="img">
  <title>Passport Nav Icon</title>
  <g id="passport-nav-icon" transform="translate(-19824 -21103)" fill="#FFFFFF">
    <g id="Group_3028" data-name="Group 3028" transform="translate(107 615)">
      <rect id="Rectangle_1950" data-name="Rectangle 1950" width="42" height="42" rx="4" transform="translate(19717 20488)" fill="none"/>
    </g>
    <path id="Path_1367" data-name="Path 1367" d="M25.575,5.822V25.575H5.822V5.822H25.575m0-2.822H5.822A2.821,2.821,0,0,0,3,5.822V25.575A2.821,2.821,0,0,0,5.822,28.4H25.575A2.83,2.83,0,0,0,28.4,25.575V5.822A2.83,2.83,0,0,0,25.575,3ZM15.7,15.7a4.233,4.233,0,1,1,4.233-4.233A4.245,4.245,0,0,1,15.7,15.7Zm8.465,8.465H7.233V22.005c0-3.527,5.6-5.051,8.465-5.051s8.465,1.524,8.465,5.051Z" transform="translate(19829.301 21108.301)"/>
  </g>
</svg>
