<svg xmlns="http://www.w3.org/2000/svg" width="30" height="30" viewBox="0 0 30 30">
  <g id="Top-Nav-Bell" transform="translate(-924 -1167)">
    <path id="Path_3227" data-name="Path 3227" d="M9,21.938a2.257,2.257,0,0,0,2.25-2.25H6.75A2.257,2.257,0,0,0,9,21.938m6.75-6.75V9.563c0-3.454-1.834-6.345-5.063-7.11V1.688a1.687,1.687,0,1,0-3.375,0v.765C4.1,3.217,2.25,6.1,2.25,9.563v5.625L0,17.438v1.125H18V17.438ZM13.5,16.313h-9V9.563C4.5,6.773,6.2,4.5,9,4.5s4.5,2.273,4.5,5.063Z" transform="translate(930 1171)" fill="#fff"/>
    <rect id="Rectangle_3333" data-name="Rectangle 3333" width="30" height="30" transform="translate(924 1167)" fill="none"/>
  </g>
</svg>
